Patient4_TMGait_0pt6_01_right_35_EMG.mot
version=1
nRows=26
nColumns=33
inDegrees=no
endheader
time	1LAddLong	2LGlutMax	3LGlutMed	4LIliopsoas	5LSemiMemb	6LBicFemLong	7LRecFem	8LVastMed	9LVastLat	10LGasMed	11LTibAnt	12lTibPost	13LPeroneusLong	14LSol	15LExtDigLong	16LFlexDigLong	17RAddLong	18RGlutMax	19RGlutMed	20RIliopsoas	21RSemiMemb	22RBicFemLong	23RRecFem	24RVastMed	25RVastLat	26RGasMed	27RTibAnt	28RTibPost	29RPeroneusLong	30RSol	31RExtDigLong	32RFlexDigLong
43.295	0.00351	-0.06134	-0.078583	-0.000305	0.042877	-0.024872	-0.031891	0.015259	-0.15381	-0.000916	0.071411	0.004883	-0.041046	-0.26032	0.2214	0.000763	0.00473	-0.066376	-0.14923	-0.001831	-0.038147	-0.007324	-0.013123	-0.072632	0.00946	-0.009155	-0.11643	-0.013733	-0.026855	-0.037689	-0.004425	-0.010376
43.296	0.01236	-0.036316	-0.11856	0.009308	0.06958	-0.000305	-0.027008	0.019684	0.007782	-0.007782	-0.01236	0.006561	-0.1062	-0.13214	0.083008	-0.01236	-0.021973	-0.032501	-0.13672	0.077515	-0.009613	0.002747	-0.026398	-0.05249	-0.006104	-0.004272	-0.03479	-0.020294	-0.052338	0.000153	-0.001373	-0.01236
43.297	0.003967	-0.045929	-0.2095	0.000916	0.070496	0.12192	0.027771	0.009766	0.07431	-0.018463	-0.008087	-0.007172	0.16846	0.053864	-0.00061	-0.005035	-0.016327	-0.034332	-0.10452	-0.036621	0.010986	-0.010223	-0.006256	-0.055695	0.018921	-0.012054	-0.00824	-0.024261	-0.04303	0.013733	-0.00351	-0.014038
43.298	0.00824	-0.036316	-0.11078	0.006409	0.033264	0.30121	0.10086	0.008392	-0.005188	-0.007782	0.028687	0.003815	-0.027313	-0.002441	-0.12665	0.003204	-0.011139	0.00885	-0.061798	-0.23529	-0.019226	-0.012207	0.017242	-0.071259	-0.007324	-0.018921	0.079498	-0.025635	-0.041046	-0.000305	-0.003052	-0.010986
43.299	0.026245	-0.036774	-0.002289	0.010529	-0.007477	0.30304	0.13275	0.007935	-0.005493	-0.010376	-0.006104	-0.003662	0.087891	0.028534	-0.10071	-0.001984	0.016785	-0.03067	-0.10574	-0.3125	0.004425	-0.042725	0.022278	-0.10742	0.006561	0.016327	0.01709	-0.045776	0.049438	-0.020142	0.001678	-0.010986
43.3	0.016327	-0.045624	0.079041	-0.003815	-0.011597	0.14908	0.11093	-0.002441	-0.010071	0.000458	-0.055084	-0.005798	-0.36041	0.16296	0.007324	-0.007172	0.020142	-0.035858	-0.14511	-0.20233	0.078735	-0.044403	0.029755	-0.072632	0.005341	0.015411	-0.11444	-0.041962	0.055542	-0.019989	-0.001373	-0.003662
43.301	-0.017242	-0.061798	0.070648	0.006866	-0.012665	0.088501	0.10635	-0.004883	-0.018616	0.012054	-0.032501	-0.011597	-0.13687	0.17548	0.009155	-0.002136	0.022736	-0.041046	-0.12268	-0.008392	0.033112	-0.095215	0.023804	-0.070038	-0.001526	-0.005188	-0.121	0.061951	0.056458	-0.024414	0.000916	-0.009155
43.302	-0.02655	-0.030212	-0.038757	0.011139	-0.006409	0.003357	0.13214	0.002747	-0.015564	-0.007019	-0.024719	-0.002289	-0.067902	0.15595	0.13092	-0.001221	0.016937	-0.063782	-0.16617	0.20355	0.002441	-0.096893	0.013428	-0.066681	0.004578	-0.043182	-0.074463	0.000153	0.068665	0.006866	-0.000916	-0.006409
43.303	-0.000916	0.004578	-0.092468	0.010529	-0.012817	-0.24231	0.13855	0.002136	-0.017395	-0.052643	0.026855	-0.031281	0.2214	0.21149	0.30243	-0.004883	-0.00061	-0.012207	-0.18097	0.30975	0.021973	-0.063782	-0.021515	-0.12421	0.004883	-0.026245	0.007324	-0.015411	0.04837	-0.083313	-0.001373	-0.008087
43.304	0.010223	-0.017395	-0.28854	0.011139	-0.005341	-0.41229	0.13901	0.002441	-0.010834	-0.12741	0.029755	-0.010986	0.55649	0.14771	0.028534	0.002289	-0.010986	0.028687	-0.1564	0.29358	0.036621	-0.079193	-0.054779	-0.06546	0.003052	0.000305	0.12146	0.026703	-0.074005	-0.16174	-0.003204	-0.007477
43.305	0.016327	-0.029144	-0.27893	0.005188	0.08255	-0.29526	0.21622	0.003204	-0.05722	-0.15427	0.016174	0.001221	0.13947	0.1239	-0.004425	0.001984	0.025787	0.04303	-0.16815	0.14877	0.036469	-0.035095	-0.035553	-0.076294	-0.010223	-0.004272	0.21088	-0.000153	-0.11704	-0.11871	-0.002747	-0.005188
43.306	0.011139	-0.032806	-0.23407	0.01297	0.083923	-0.068817	0.23315	0.002899	-0.076752	-0.072327	-0.042267	-0.00946	-0.23483	-0.037231	-0.14862	-0.010223	0.009003	0.045166	-0.177	0.19669	-0.051422	0.007477	-0.071259	-0.053406	0.018616	-0.008545	0.28153	-0.014191	-0.14694	-0.063782	-0.003357	-0.002899
43.307	0.005493	-0.075989	0.10574	-0.005493	0.056152	-0.001221	0.19974	0.008698	-0.12985	0.065765	-0.10162	0.001526	0.081635	0.032349	-0.11566	-0.00412	-0.041351	0.001068	-0.22675	0.14236	-0.037689	0.10696	-0.07309	-0.016937	0.019836	-0.008392	0.271	-0.015564	0.18356	-0.015106	-0.003662	0.001373
43.308	0.006256	-0.073395	0.22003	-0.009613	0.04303	0.007935	0.1207	0.015717	-0.11826	-0.033875	-0.089874	0.007629	0.19714	0.16312	-0.062714	-0.007172	-0.047913	-0.047607	-0.23453	0.065308	-0.060883	0.20233	-0.096436	0.008698	0.011292	-0.023041	0.10513	-0.017242	0.21957	0.031586	-0.002441	0.003052
43.309	0.017395	-0.077667	0.15457	-0.01297	0.025635	-0.0177	-0.031281	0.023041	-0.075226	-0.22751	-0.028992	-0.000916	-1.0387	0.28488	-0.039215	-0.006561	-0.005341	-0.079193	0.18646	0.031281	-0.10666	0.22873	-0.074768	-0.056	-0.001678	-0.029297	-0.15274	-0.014648	-0.1471	0.068512	-0.003204	-0.004883
43.31	0.012207	-0.025482	0.046692	-0.005035	0.021057	-0.021973	-0.047302	0.018768	-0.040588	-0.18387	0.012665	0.004883	-0.53268	0.23529	-0.0914	-0.007782	0.00061	-0.057068	-0.068512	0.012512	-0.12741	0.095062	-0.0383	-0.061188	-0.001831	-0.030518	-0.11719	-0.017395	0.13504	0.014801	-0.001984	-0.003052
43.311	0.015564	-0.007477	-0.037079	-0.014954	0.009918	-0.033569	0.010376	0.01358	-0.016632	-0.073395	0.029144	0.025635	0.24918	0.081787	-0.093842	0.091858	0.002747	-0.039368	-0.12344	0.020905	-0.1059	-0.002594	-0.050354	-0.056915	0.008392	-0.029297	-0.11917	-0.000305	0.056305	-0.031281	-0.004272	-0.011749
43.312	0.010529	0.009308	-0.019379	-0.007324	-0.013123	-0.020447	0.11154	0.008087	0.034637	0.04303	0.061035	0.029755	0.21057	0.053253	-0.032806	-0.02533	0.001831	-0.002136	-0.17822	-0.0354	-0.0354	-0.071411	-0.069885	-0.054626	0	-0.023193	-0.052643	-0.011749	-0.25803	-0.15289	-0.002594	-0.00946
43.313	0.010529	-0.005798	0.046844	0.003052	-0.030975	0.005798	0.1506	-0.005646	0.083313	0.10422	0.083008	-0.037689	0.34241	0.041962	-0.043793	-0.14603	0.036011	0.005188	-0.18555	-0.093079	-0.034027	-0.2005	-0.084229	-0.11063	-0.006561	-0.011902	0.12222	-0.018005	-0.29221	-0.17181	-0.008545	-0.016479
43.314	-0.001831	-0.020294	0.023041	0.00824	-0.00824	0.027466	0.16235	-0.008698	0.076599	0.23743	0.054016	-0.030975	0.31616	0.021515	0.015106	0.17792	0.053253	-0.000153	-0.29892	-0.10361	-0.065155	-0.19318	-0.038605	-0.11154	-0.00885	-0.024567	0.17288	-0.016632	-0.056458	-0.059662	-0.002594	-0.013733
43.315	-0.002441	-0.031891	-0.039063	-0.006714	0.019379	0.012207	0.18692	-0.02243	-0.021362	0.11841	0.032959	0.007477	0.079803	-0.17807	0.11276	0.088196	0.019836	-0.061646	-0.071564	-0.11978	-0.11185	-0.13611	-0.10941	-0.11765	0.008545	-0.030212	-0.005035	-0.032654	0.1181	-0.040741	-0.005188	-0.010681
43.316	-0.006561	0.023956	0.01297	-0.027924	0.045471	-0.001678	0.15533	-0.010681	-0.032654	-0.052032	0.050964	0.003357	-0.38376	-0.35126	0.12817	-0.11871	-0.009918	-0.005493	0.12817	-0.11063	-0.1564	0.036926	-0.11597	-0.08255	0.00824	-0.00824	0.14618	-0.009308	0.10956	-0.085449	-0.00412	-0.009766
43.317	-0.006714	0.031738	0.017242	-0.023346	-0.000305	0.008392	0.13809	-0.008698	-0.028992	-0.012054	-0.020294	0.006714	-0.41748	-0.2272	0.057678	-0.089874	-0.018616	-0.054474	0.15335	-0.051117	-0.10132	0.048676	-0.11673	-0.061188	0.011902	0.002747	0.23254	0.020752	0.03418	-0.1207	-0.002441	-0.006714
43.318	-0.015106	0.016022	0.028992	-0.001831	-0.063324	0.019531	0.14328	-0.000763	-0.034485	0.11017	-0.014801	0.096283	-0.177	-0.063934	0.036469	-0.033264	-0.034485	-0.044098	0.13672	-0.026703	0.46661	-0.10056	-0.11551	-0.080719	0.007477	0.005035	0.049438	-0.007629	-0.34576	-0.069427	-0.002594	-0.01297
43.319	-0.006256	0.011597	-0.036011	0.010681	-0.12909	-0.002747	0.14572	-0.000153	-0.012512	0.14557	-0.017548	0.076904	-0.20126	-0.013733	-0.003662	-0.008698	-0.009003	-0.094147	-0.28915	-0.028687	0.53635	-0.16419	-0.10651	-0.071564	0.007629	-0.008392	-0.14404	-0.011902	-0.30121	-0.048828	-0.002136	-0.007019
43.32	0.009613	0.017853	-0.060425	0.006409	-0.095367	-0.040131	0.051422	0.008392	0.035553	0.15472	-0.009155	-0.11871	0.12222	0.005646	-0.08606	-0.011139	0.005035	-0.11292	-0.46875	-0.071716	0.26108	-0.15762	-0.10788	-0.095825	0.006714	-0.007172	-0.26962	-0.00885	0.29022	-0.020142	-0.002899	0.003204
